<mxfile host="app.diagrams.net" modified="2023-07-15T11:00:11.678Z" agent="Mozilla/5.0 (Macintosh; Intel Mac OS X 10_15_7) AppleWebKit/537.36 (KHTML, like Gecko) Chrome/114.0.0.0 Safari/537.36" etag="vAfESvKua4H_LseYEQUl" version="21.3.0" type="device">
  <diagram name="UseCases-Overall" id="A0GWiKRh3yasPY9_yTh_">
    <mxGraphModel dx="1434" dy="656" grid="1" gridSize="10" guides="1" tooltips="1" connect="1" arrows="1" fold="1" page="1" pageScale="1" pageWidth="827" pageHeight="1169" math="0" shadow="0">
      <root>
        <mxCell id="0" />
        <mxCell id="1" parent="0" />
        <mxCell id="InL1ZwBWk_iucmoXOYiQ-3" style="edgeStyle=orthogonalEdgeStyle;rounded=0;orthogonalLoop=1;jettySize=auto;html=1;entryX=0;entryY=0.5;entryDx=0;entryDy=0;" parent="1" source="InL1ZwBWk_iucmoXOYiQ-1" target="InL1ZwBWk_iucmoXOYiQ-2" edge="1">
          <mxGeometry relative="1" as="geometry" />
        </mxCell>
        <mxCell id="InL1ZwBWk_iucmoXOYiQ-5" style="edgeStyle=orthogonalEdgeStyle;rounded=0;orthogonalLoop=1;jettySize=auto;html=1;" parent="1" source="InL1ZwBWk_iucmoXOYiQ-1" target="InL1ZwBWk_iucmoXOYiQ-4" edge="1">
          <mxGeometry relative="1" as="geometry" />
        </mxCell>
        <mxCell id="InL1ZwBWk_iucmoXOYiQ-7" style="edgeStyle=orthogonalEdgeStyle;rounded=0;orthogonalLoop=1;jettySize=auto;html=1;entryX=0;entryY=0.5;entryDx=0;entryDy=0;" parent="1" source="InL1ZwBWk_iucmoXOYiQ-1" target="InL1ZwBWk_iucmoXOYiQ-6" edge="1">
          <mxGeometry relative="1" as="geometry" />
        </mxCell>
        <mxCell id="InL1ZwBWk_iucmoXOYiQ-11" style="edgeStyle=orthogonalEdgeStyle;rounded=0;orthogonalLoop=1;jettySize=auto;html=1;entryX=0;entryY=0.5;entryDx=0;entryDy=0;" parent="1" source="InL1ZwBWk_iucmoXOYiQ-1" target="InL1ZwBWk_iucmoXOYiQ-8" edge="1">
          <mxGeometry relative="1" as="geometry" />
        </mxCell>
        <mxCell id="InL1ZwBWk_iucmoXOYiQ-12" style="edgeStyle=orthogonalEdgeStyle;rounded=0;orthogonalLoop=1;jettySize=auto;html=1;entryX=0;entryY=0.5;entryDx=0;entryDy=0;" parent="1" source="InL1ZwBWk_iucmoXOYiQ-1" target="InL1ZwBWk_iucmoXOYiQ-9" edge="1">
          <mxGeometry relative="1" as="geometry" />
        </mxCell>
        <mxCell id="InL1ZwBWk_iucmoXOYiQ-14" style="edgeStyle=orthogonalEdgeStyle;rounded=0;orthogonalLoop=1;jettySize=auto;html=1;entryX=0;entryY=0.5;entryDx=0;entryDy=0;" parent="1" source="InL1ZwBWk_iucmoXOYiQ-1" target="InL1ZwBWk_iucmoXOYiQ-10" edge="1">
          <mxGeometry relative="1" as="geometry" />
        </mxCell>
        <mxCell id="InL1ZwBWk_iucmoXOYiQ-1" value="User" style="shape=umlActor;verticalLabelPosition=bottom;verticalAlign=top;html=1;" parent="1" vertex="1">
          <mxGeometry x="130" y="250" width="30" height="60" as="geometry" />
        </mxCell>
        <mxCell id="InL1ZwBWk_iucmoXOYiQ-16" value="Use Cases" style="swimlane;whiteSpace=wrap;html=1;" parent="1" vertex="1">
          <mxGeometry x="250" y="60" width="270" height="620" as="geometry" />
        </mxCell>
        <mxCell id="InL1ZwBWk_iucmoXOYiQ-6" value="View all products" style="ellipse;whiteSpace=wrap;html=1;" parent="InL1ZwBWk_iucmoXOYiQ-16" vertex="1">
          <mxGeometry x="104" y="240" width="140" height="70" as="geometry" />
        </mxCell>
        <mxCell id="InL1ZwBWk_iucmoXOYiQ-2" value="Route to other page" style="ellipse;whiteSpace=wrap;html=1;" parent="InL1ZwBWk_iucmoXOYiQ-16" vertex="1">
          <mxGeometry x="104" y="50" width="140" height="70" as="geometry" />
        </mxCell>
        <mxCell id="InL1ZwBWk_iucmoXOYiQ-4" value="Search" style="ellipse;whiteSpace=wrap;html=1;" parent="InL1ZwBWk_iucmoXOYiQ-16" vertex="1">
          <mxGeometry x="104" y="140" width="140" height="70" as="geometry" />
        </mxCell>
        <mxCell id="InL1ZwBWk_iucmoXOYiQ-8" value="View all related products" style="ellipse;whiteSpace=wrap;html=1;" parent="InL1ZwBWk_iucmoXOYiQ-16" vertex="1">
          <mxGeometry x="104" y="330" width="140" height="70" as="geometry" />
        </mxCell>
        <mxCell id="InL1ZwBWk_iucmoXOYiQ-9" value="View product interactions" style="ellipse;whiteSpace=wrap;html=1;" parent="InL1ZwBWk_iucmoXOYiQ-16" vertex="1">
          <mxGeometry x="104" y="430" width="140" height="70" as="geometry" />
        </mxCell>
        <mxCell id="InL1ZwBWk_iucmoXOYiQ-10" value="Trade old device" style="ellipse;whiteSpace=wrap;html=1;" parent="InL1ZwBWk_iucmoXOYiQ-16" vertex="1">
          <mxGeometry x="104" y="515" width="140" height="70" as="geometry" />
        </mxCell>
        <mxCell id="0CdSlHwaaLw7nmPOCLYo-1" value="Product Service" style="swimlane;whiteSpace=wrap;html=1;" vertex="1" parent="1">
          <mxGeometry x="720" y="60" width="200" height="420" as="geometry" />
        </mxCell>
        <mxCell id="0CdSlHwaaLw7nmPOCLYo-2" value="Get Product Detail" style="ellipse;whiteSpace=wrap;html=1;" vertex="1" parent="0CdSlHwaaLw7nmPOCLYo-1">
          <mxGeometry x="30" y="230" width="140" height="70" as="geometry" />
        </mxCell>
        <mxCell id="0CdSlHwaaLw7nmPOCLYo-3" value="Create Product" style="ellipse;whiteSpace=wrap;html=1;" vertex="1" parent="0CdSlHwaaLw7nmPOCLYo-1">
          <mxGeometry x="30" y="50" width="140" height="70" as="geometry" />
        </mxCell>
        <mxCell id="0CdSlHwaaLw7nmPOCLYo-4" value="Update Product" style="ellipse;whiteSpace=wrap;html=1;" vertex="1" parent="0CdSlHwaaLw7nmPOCLYo-1">
          <mxGeometry x="30" y="140" width="140" height="70" as="geometry" />
        </mxCell>
        <mxCell id="0CdSlHwaaLw7nmPOCLYo-5" value="Get Product List" style="ellipse;whiteSpace=wrap;html=1;" vertex="1" parent="0CdSlHwaaLw7nmPOCLYo-1">
          <mxGeometry x="30" y="320" width="140" height="70" as="geometry" />
        </mxCell>
        <mxCell id="0CdSlHwaaLw7nmPOCLYo-6" style="edgeStyle=orthogonalEdgeStyle;rounded=0;orthogonalLoop=1;jettySize=auto;html=1;entryX=0;entryY=0.5;entryDx=0;entryDy=0;" edge="1" parent="1" source="InL1ZwBWk_iucmoXOYiQ-6" target="0CdSlHwaaLw7nmPOCLYo-5">
          <mxGeometry relative="1" as="geometry" />
        </mxCell>
        <mxCell id="0CdSlHwaaLw7nmPOCLYo-7" style="edgeStyle=orthogonalEdgeStyle;rounded=0;orthogonalLoop=1;jettySize=auto;html=1;entryX=0;entryY=0.5;entryDx=0;entryDy=0;" edge="1" parent="1" source="InL1ZwBWk_iucmoXOYiQ-8" target="0CdSlHwaaLw7nmPOCLYo-5">
          <mxGeometry relative="1" as="geometry" />
        </mxCell>
        <mxCell id="0CdSlHwaaLw7nmPOCLYo-8" style="edgeStyle=orthogonalEdgeStyle;rounded=0;orthogonalLoop=1;jettySize=auto;html=1;entryX=0;entryY=0.5;entryDx=0;entryDy=0;" edge="1" parent="1" source="InL1ZwBWk_iucmoXOYiQ-9" target="0CdSlHwaaLw7nmPOCLYo-5">
          <mxGeometry relative="1" as="geometry" />
        </mxCell>
        <mxCell id="0CdSlHwaaLw7nmPOCLYo-9" style="edgeStyle=orthogonalEdgeStyle;rounded=0;orthogonalLoop=1;jettySize=auto;html=1;" edge="1" parent="1" source="InL1ZwBWk_iucmoXOYiQ-6" target="0CdSlHwaaLw7nmPOCLYo-2">
          <mxGeometry relative="1" as="geometry" />
        </mxCell>
        <mxCell id="0CdSlHwaaLw7nmPOCLYo-10" style="edgeStyle=orthogonalEdgeStyle;rounded=0;orthogonalLoop=1;jettySize=auto;html=1;entryX=0;entryY=0.5;entryDx=0;entryDy=0;" edge="1" parent="1" source="InL1ZwBWk_iucmoXOYiQ-8" target="0CdSlHwaaLw7nmPOCLYo-2">
          <mxGeometry relative="1" as="geometry" />
        </mxCell>
        <mxCell id="0CdSlHwaaLw7nmPOCLYo-11" style="edgeStyle=orthogonalEdgeStyle;rounded=0;orthogonalLoop=1;jettySize=auto;html=1;entryX=0;entryY=0.5;entryDx=0;entryDy=0;" edge="1" parent="1" source="InL1ZwBWk_iucmoXOYiQ-9" target="0CdSlHwaaLw7nmPOCLYo-2">
          <mxGeometry relative="1" as="geometry" />
        </mxCell>
        <mxCell id="Ow9zekjwbDB0EJQwUEru-5" style="edgeStyle=orthogonalEdgeStyle;rounded=0;orthogonalLoop=1;jettySize=auto;html=1;" edge="1" parent="1" source="Ow9zekjwbDB0EJQwUEru-1" target="0CdSlHwaaLw7nmPOCLYo-3">
          <mxGeometry relative="1" as="geometry" />
        </mxCell>
        <mxCell id="Ow9zekjwbDB0EJQwUEru-6" style="edgeStyle=orthogonalEdgeStyle;rounded=0;orthogonalLoop=1;jettySize=auto;html=1;entryX=1;entryY=0.5;entryDx=0;entryDy=0;" edge="1" parent="1" source="Ow9zekjwbDB0EJQwUEru-1" target="0CdSlHwaaLw7nmPOCLYo-4">
          <mxGeometry relative="1" as="geometry" />
        </mxCell>
        <mxCell id="Ow9zekjwbDB0EJQwUEru-1" value="Administrator" style="shape=umlActor;verticalLabelPosition=bottom;verticalAlign=top;html=1;" vertex="1" parent="1">
          <mxGeometry x="1110" y="160" width="30" height="60" as="geometry" />
        </mxCell>
      </root>
    </mxGraphModel>
  </diagram>
</mxfile>
